<svg width="20" height="15" viewBox="0 0 20 15" fill="none" xmlns="http://www.w3.org/2000/svg">
<path d="M6.53747 0.271671C6.60076 0.191053 6.67918 0.125329 6.76771 0.0786865C6.85625 0.0320444 6.95297 0.00550842 7.0517 0.000770191C7.15042 -0.00396803 7.249 0.0131955 7.34114 0.0511666C7.43327 0.0891376 7.51695 0.147083 7.58683 0.221309C7.65672 0.295535 7.71127 0.384412 7.74702 0.482275C7.78277 0.580137 7.79893 0.684838 7.79447 0.789702C7.79001 0.894566 7.76503 0.997292 7.72111 1.09133C7.6772 1.18537 7.61532 1.26866 7.53942 1.33589L2.42745 6.77192H19.3244C19.5068 6.7822 19.6786 6.8664 19.8042 7.00717C19.9299 7.14795 20 7.33457 20 7.52858C20 7.72259 19.9299 7.90921 19.8042 8.04998C19.6786 8.19076 19.5068 8.27496 19.3244 8.28524H2.42745L7.54743 13.7149C7.6763 13.8582 7.74821 14.0488 7.74821 14.247C7.74821 14.4452 7.6763 14.6358 7.54743 14.7791C7.48172 14.8491 7.40364 14.9047 7.31767 14.9426C7.2317 14.9805 7.13954 15 7.04646 15C6.95338 15 6.86121 14.9805 6.77524 14.9426C6.68927 14.9047 6.61119 14.8491 6.54548 14.7791L0.213129 8.05324C0.145731 7.98433 0.0921173 7.90169 0.0554962 7.81026C0.0188732 7.71883 0 7.62049 0 7.52113C0 7.42177 0.0188732 7.32343 0.0554962 7.232C0.0921173 7.14057 0.145731 7.05793 0.213129 6.98902L6.53747 0.271671Z" fill="#0D5C9C"/>
</svg>
