<svg width="18" height="15" viewBox="0 0 18 15" fill="none" xmlns="http://www.w3.org/2000/svg">
<path d="M12.1163 0.271671C12.0593 0.191053 11.9887 0.125329 11.9091 0.0786865C11.8294 0.0320444 11.7423 0.00550842 11.6535 0.000770191C11.5646 -0.00396803 11.4759 0.0131955 11.393 0.0511666C11.3101 0.0891376 11.2347 0.147083 11.1718 0.221309C11.109 0.295535 11.0599 0.384412 11.0277 0.482275C10.9955 0.580137 10.981 0.684838 10.985 0.789702C10.989 0.894566 11.0115 0.997292 11.051 1.09133C11.0905 1.18537 11.1462 1.26866 11.2145 1.33589L15.8153 6.77192H0.608036C0.443872 6.7822 0.289304 6.8664 0.176181 7.00717C0.0630584 7.14795 0 7.33457 0 7.52858C0 7.72259 0.0630584 7.90921 0.176181 8.04998C0.289304 8.19076 0.443872 8.27496 0.608036 8.28524H15.8153L11.2073 13.7149C11.0913 13.8582 11.0266 14.0488 11.0266 14.247C11.0266 14.4452 11.0913 14.6358 11.2073 14.7791C11.2665 14.8491 11.3367 14.9047 11.4141 14.9426C11.4915 14.9805 11.5744 15 11.6582 15C11.742 15 11.8249 14.9805 11.9023 14.9426C11.9797 14.9047 12.0499 14.8491 12.1091 14.7791L17.8082 8.05324C17.8688 7.98433 17.9171 7.90169 17.9501 7.81026C17.983 7.71883 18 7.62049 18 7.52113C18 7.42177 17.983 7.32343 17.9501 7.232C17.9171 7.14057 17.8688 7.05793 17.8082 6.98902L12.1163 0.271671Z" fill="#0D5C9C"/>
</svg>
